<?xml version="1.0" encoding="UTF-8" standalone="no"?>
<!-- Created with Inkscape (http://www.inkscape.org/) -->

<svg
   version="1.1"
   id="svg2"
   xml:space="preserve"
   width="746.66803"
   height="384"
   viewBox="0 0 746.66803 384"
   sodipodi:docname="avambraccio_modello.svg"
   inkscape:version="1.1.1 (3bf5ae0d25, 2021-09-20)"
   xmlns:inkscape="http://www.inkscape.org/namespaces/inkscape"
   xmlns:sodipodi="http://sodipodi.sourceforge.net/DTD/sodipodi-0.dtd"
   xmlns="http://www.w3.org/2000/svg"
   xmlns:svg="http://www.w3.org/2000/svg"><defs
     id="defs6"><clipPath
       clipPathUnits="userSpaceOnUse"
       id="clipPath16"><path
         d="M 0,288 H 560.001 V 0 H 0 Z"
         id="path14" /></clipPath><clipPath
       clipPathUnits="userSpaceOnUse"
       id="clipPath52"><path
         d="m 292.278,37.2865 h 78.391 V 20.0138 h -78.391 z"
         id="path50" /></clipPath></defs><sodipodi:namedview
     id="namedview4"
     pagecolor="#ffffff"
     bordercolor="#666666"
     borderopacity="1.0"
     inkscape:pageshadow="2"
     inkscape:pageopacity="0.0"
     inkscape:pagecheckerboard="0"
     showgrid="false"
     inkscape:zoom="1.5093722"
     inkscape:cx="373.33401"
     inkscape:cy="191.80159"
     inkscape:window-width="1920"
     inkscape:window-height="1009"
     inkscape:window-x="-8"
     inkscape:window-y="-8"
     inkscape:window-maximized="1"
     inkscape:current-layer="g8" /><g
     id="g8"
     inkscape:groupmode="layer"
     inkscape:label="avambraccio_modello"
     transform="matrix(1.3333333,0,0,-1.3333333,0,384)"><g
       id="g10"><g
         id="g12"
         clip-path="url(#clipPath16)"><g
           id="g18"
           transform="translate(295.5312,31.0205)"><path
             d="M 0,0 C -0.68,0.729 -0.639,1.871 0.091,2.55 0.82,3.229 1.962,3.188 2.642,2.458 3.32,1.729 3.279,0.587 2.55,-0.092 1.82,-0.771 0.679,-0.729 0,0 m 5.007,4.544 0.015,0.015 -49.096,52.868 c -0.146,0.354 -2.058,-3.032 -2.637,-3.767 -1.056,-1.338 -3.439,-4.351 -3.1,-4.789 l 47.544,-51.097 0.016,0.015 c 1.889,-1.861 4.917,-1.935 6.876,-0.111 1.96,1.823 2.104,4.849 0.382,6.866"
             style="fill:#848484;fill-opacity:1;fill-rule:nonzero;stroke:none"
             id="path20" /></g><g
           id="g22"
           transform="translate(295.5312,31.0205)"><path
             d="M 0,0 C -0.68,0.729 -0.639,1.871 0.091,2.55 0.82,3.229 1.962,3.188 2.642,2.458 3.32,1.729 3.279,0.587 2.55,-0.092 1.82,-0.771 0.679,-0.729 0,0 Z m 5.007,4.544 0.015,0.015 -49.096,52.868 c -0.146,0.354 -2.058,-3.032 -2.637,-3.767 -1.056,-1.338 -3.439,-4.351 -3.1,-4.789 l 47.544,-51.097 0.016,0.015 c 1.889,-1.861 4.917,-1.935 6.876,-0.111 1.96,1.823 2.104,4.849 0.382,6.866 z"
             style="fill:none;stroke:#000000;stroke-width:0.25;stroke-linecap:butt;stroke-linejoin:miter;stroke-miterlimit:10;stroke-dasharray:none;stroke-opacity:1"
             id="path24" /></g><g
           id="g26"
           transform="translate(365.1836,43.4189)"><path
             d="M 0,0 C -0.979,-0.186 -1.924,0.457 -2.11,1.436 -2.297,2.414 -1.654,3.358 -0.675,3.545 0.304,3.731 1.248,3.089 1.435,2.11 1.621,1.131 0.979,0.187 0,0 m -67.849,-12.914 c -0.978,-0.187 -1.922,0.456 -2.109,1.435 -0.187,0.979 0.456,1.923 1.436,2.11 0.978,0.186 1.922,-0.456 2.109,-1.436 0.186,-0.978 -0.456,-1.923 -1.436,-2.109 M -1.181,6.658 -1.186,6.68 -68.732,-6.178 c -2.702,-0.513 -4.474,-3.121 -3.96,-5.822 0.514,-2.701 3.121,-4.474 5.822,-3.96 L 0.677,-3.103 0.673,-3.081 C 3.254,-2.474 4.929,0.051 4.428,2.68 3.927,5.31 1.442,7.042 -1.181,6.658"
             style="fill:#848484;fill-opacity:1;fill-rule:nonzero;stroke:none"
             id="path28" /></g><g
           id="g30"
           transform="translate(365.1836,43.4189)"><path
             d="M 0,0 C -0.979,-0.186 -1.924,0.457 -2.11,1.436 -2.297,2.414 -1.654,3.358 -0.675,3.545 0.304,3.731 1.248,3.089 1.435,2.11 1.621,1.131 0.979,0.187 0,0 Z m -67.849,-12.914 c -0.978,-0.187 -1.922,0.456 -2.109,1.435 -0.187,0.979 0.456,1.923 1.436,2.11 0.978,0.186 1.922,-0.456 2.109,-1.436 0.186,-0.978 -0.456,-1.923 -1.436,-2.109 z M -1.181,6.658 -1.186,6.68 -68.732,-6.178 c -2.702,-0.513 -4.474,-3.121 -3.96,-5.822 0.514,-2.701 3.121,-4.474 5.822,-3.96 L 0.677,-3.103 0.673,-3.081 C 3.254,-2.474 4.929,0.051 4.428,2.68 3.927,5.31 1.442,7.042 -1.181,6.658 Z"
             style="fill:none;stroke:#000000;stroke-width:0.25;stroke-linecap:butt;stroke-linejoin:miter;stroke-miterlimit:10;stroke-dasharray:none;stroke-opacity:1"
             id="path32" /></g><g
           id="g34"
           transform="translate(290.3437,54.8066)"><path
             d="M 0,0 0.033,0.006 C 6.896,1.312 13.544,-2.616 15.854,-8.979"
             style="fill:none;stroke:#003bf6;stroke-width:0.75;stroke-linecap:butt;stroke-linejoin:miter;stroke-miterlimit:10;stroke-dasharray:none;stroke-opacity:1"
             id="path36" /></g><g
           id="g38"
           transform="translate(288.1211,54.3828)"><path
             d="M 0,0 C 1.119,-0.192 2.542,-0.613 3.478,-1.164 L 2.517,0.47 2.823,2.342 C 2.149,1.489 0.974,0.584 0,0"
             style="fill:#003bf6;fill-opacity:1;fill-rule:nonzero;stroke:none"
             id="path40" /></g><g
           id="g42"
           transform="translate(306.7979,43.6436)"><path
             d="M 0,0 C -0.675,0.914 -1.688,1.996 -2.602,2.586 L -0.709,2.46 0.825,3.573 C 0.366,2.589 0.084,1.133 0,0"
             style="fill:#003bf6;fill-opacity:1;fill-rule:nonzero;stroke:none"
             id="path44" /></g><g
           id="g46"><g
             id="g48" /><g
             id="g64"><g
               clip-path="url(#clipPath52)"
               opacity="0.5"
               id="g62"><g
                 transform="translate(365.5059,23.3174)"
                 id="g56"><path
                   d="M 0,0 C -0.991,0.103 -1.712,0.989 -1.608,1.98 -1.506,2.972 -0.619,3.691 0.371,3.589 1.362,3.486 2.083,2.6 1.98,1.608 1.878,0.618 0.991,-0.103 0,0 m -68.699,7.11 c -0.991,0.103 -1.711,0.99 -1.609,1.981 0.103,0.991 0.99,1.712 1.981,1.609 0.991,-0.102 1.711,-0.989 1.608,-1.98 -0.102,-0.991 -0.989,-1.712 -1.98,-1.61 m 69.48,-0.393 0.002,0.021 -68.394,7.079 c -2.736,0.284 -5.182,-1.705 -5.465,-4.439 -0.283,-2.735 1.705,-5.182 4.439,-5.465 l 68.395,-7.079 0.002,0.02 c 2.646,-0.159 4.975,1.779 5.251,4.441 0.276,2.663 -1.608,5.036 -4.23,5.422"
                   style="fill:#c3a0ff;fill-opacity:1;fill-rule:nonzero;stroke:none"
                   id="path54" /></g><g
                 transform="translate(365.5059,23.3174)"
                 id="g60"><path
                   d="M 0,0 C -0.991,0.103 -1.712,0.989 -1.608,1.98 -1.506,2.972 -0.619,3.691 0.371,3.589 1.362,3.486 2.083,2.6 1.98,1.608 1.878,0.618 0.991,-0.103 0,0 Z m -68.699,7.11 c -0.991,0.103 -1.711,0.99 -1.609,1.981 0.103,0.991 0.99,1.712 1.981,1.609 0.991,-0.102 1.711,-0.989 1.608,-1.98 -0.102,-0.991 -0.989,-1.712 -1.98,-1.61 z m 69.48,-0.393 0.002,0.021 -68.394,7.079 c -2.736,0.284 -5.182,-1.705 -5.465,-4.439 -0.283,-2.735 1.705,-5.182 4.439,-5.465 l 68.395,-7.079 0.002,0.02 c 2.646,-0.159 4.975,1.779 5.251,4.441 0.276,2.663 -1.608,5.036 -4.23,5.422 z"
                   style="fill:none;stroke:#784eff;stroke-width:0.25;stroke-linecap:butt;stroke-linejoin:miter;stroke-miterlimit:10;stroke-dasharray:none;stroke-opacity:1"
                   id="path58" /></g></g></g></g><g
           id="g66"
           transform="translate(288.4727,61.0273)"><path
             d="M 0,0 H 1"
             style="fill:none;stroke:#003bf6;stroke-width:0.5;stroke-linecap:butt;stroke-linejoin:miter;stroke-miterlimit:10;stroke-dasharray:none;stroke-opacity:1"
             id="path68" /></g><g
           id="g70"
           transform="translate(291.5586,61.0146)"><path
             d="M 0,0 C 11.341,-0.371 20.637,-8.83 22.305,-19.795"
             style="fill:none;stroke:#003bf6;stroke-width:0.5;stroke-linecap:butt;stroke-linejoin:miter;stroke-miterlimit:10;stroke-dasharray:2.086, 2.086;stroke-dashoffset:0;stroke-opacity:1"
             id="path72" /></g><g
           id="g74"
           transform="translate(313.9971,40.1846)"><path
             d="M 0,0 C 0.035,-0.33 0.063,-0.662 0.085,-0.997"
             style="fill:none;stroke:#003bf6;stroke-width:0.5;stroke-linecap:butt;stroke-linejoin:miter;stroke-miterlimit:10;stroke-dasharray:none;stroke-opacity:1"
             id="path76" /></g><g
           id="g78"
           transform="translate(286.9629,61.0273)"><path
             d="M 0,0 C 0.711,-0.264 1.592,-0.713 2.138,-1.189 L 1.707,0 2.138,1.188 C 1.592,0.712 0.711,0.263 0,0"
             style="fill:#003bf6;fill-opacity:1;fill-rule:nonzero;stroke:none"
             id="path80" /></g><g
           id="g82"
           transform="translate(314.1299,37.6797)"><path
             d="m 0,0 c -0.299,0.695 -0.792,1.553 -1.295,2.074 l 1.209,-0.37 1.165,0.489 C 0.632,1.624 0.228,0.722 0,0"
             style="fill:#003bf6;fill-opacity:1;fill-rule:nonzero;stroke:none"
             id="path84" /></g><g
           id="g86"
           transform="translate(254.1958,92.9043)"><path
             d="M 0,0 -11.962,-17.361"
             style="fill:#000000;fill-opacity:1;fill-rule:nonzero;stroke:#000000;stroke-width:0.5;stroke-linecap:butt;stroke-linejoin:miter;stroke-miterlimit:10;stroke-dasharray:none;stroke-opacity:1"
             id="path88" /></g><g
           id="g90"
           transform="translate(248.064,92.4268)"><path
             d="M 0,0 H 5.934"
             style="fill:#000000;fill-opacity:1;fill-rule:nonzero;stroke:#000000;stroke-width:0.5;stroke-linecap:butt;stroke-linejoin:miter;stroke-miterlimit:10;stroke-dasharray:none;stroke-opacity:1"
             id="path92" /></g><g
           id="g94"
           transform="translate(247.0117,91.1943)"><path
             d="M 0,0 H 5.934"
             style="fill:#000000;fill-opacity:1;fill-rule:nonzero;stroke:#000000;stroke-width:0.5;stroke-linecap:butt;stroke-linejoin:miter;stroke-miterlimit:10;stroke-dasharray:none;stroke-opacity:1"
             id="path96" /></g><g
           id="g98"
           transform="translate(246.4331,89.9629)"><path
             d="M 0,0 H 5.934"
             style="fill:#000000;fill-opacity:1;fill-rule:nonzero;stroke:#000000;stroke-width:0.5;stroke-linecap:butt;stroke-linejoin:miter;stroke-miterlimit:10;stroke-dasharray:none;stroke-opacity:1"
             id="path100" /></g><g
           id="g102"
           transform="translate(245.3809,88.7314)"><path
             d="M 0,0 H 5.934"
             style="fill:#000000;fill-opacity:1;fill-rule:nonzero;stroke:#000000;stroke-width:0.5;stroke-linecap:butt;stroke-linejoin:miter;stroke-miterlimit:10;stroke-dasharray:none;stroke-opacity:1"
             id="path104" /></g><g
           id="g106"
           transform="translate(244.5171,87.499)"><path
             d="M 0,0 H 5.934"
             style="fill:#000000;fill-opacity:1;fill-rule:nonzero;stroke:#000000;stroke-width:0.5;stroke-linecap:butt;stroke-linejoin:miter;stroke-miterlimit:10;stroke-dasharray:none;stroke-opacity:1"
             id="path108" /></g><g
           id="g110"
           transform="translate(243.4653,86.2676)"><path
             d="M 0,0 H 5.934"
             style="fill:#000000;fill-opacity:1;fill-rule:nonzero;stroke:#000000;stroke-width:0.5;stroke-linecap:butt;stroke-linejoin:miter;stroke-miterlimit:10;stroke-dasharray:none;stroke-opacity:1"
             id="path112" /></g><g
           id="g114"
           transform="translate(242.8862,85.0361)"><path
             d="M 0,0 H 5.934"
             style="fill:#000000;fill-opacity:1;fill-rule:nonzero;stroke:#000000;stroke-width:0.5;stroke-linecap:butt;stroke-linejoin:miter;stroke-miterlimit:10;stroke-dasharray:none;stroke-opacity:1"
             id="path116" /></g><g
           id="g118"
           transform="translate(241.8345,83.8037)"><path
             d="M 0,0 H 5.934"
             style="fill:#000000;fill-opacity:1;fill-rule:nonzero;stroke:#000000;stroke-width:0.5;stroke-linecap:butt;stroke-linejoin:miter;stroke-miterlimit:10;stroke-dasharray:none;stroke-opacity:1"
             id="path120" /></g><g
           id="g122"
           transform="translate(241.0781,82.3545)"><path
             d="M 0,0 H 5.934"
             style="fill:#000000;fill-opacity:1;fill-rule:nonzero;stroke:#000000;stroke-width:0.5;stroke-linecap:butt;stroke-linejoin:miter;stroke-miterlimit:10;stroke-dasharray:none;stroke-opacity:1"
             id="path124" /></g><g
           id="g126"
           transform="translate(240.0264,81.123)"><path
             d="M 0,0 H 5.934"
             style="fill:#000000;fill-opacity:1;fill-rule:nonzero;stroke:#000000;stroke-width:0.5;stroke-linecap:butt;stroke-linejoin:miter;stroke-miterlimit:10;stroke-dasharray:none;stroke-opacity:1"
             id="path128" /></g><g
           id="g130"
           transform="translate(239.4473,79.8916)"><path
             d="M 0,0 H 5.934"
             style="fill:#000000;fill-opacity:1;fill-rule:nonzero;stroke:#000000;stroke-width:0.5;stroke-linecap:butt;stroke-linejoin:miter;stroke-miterlimit:10;stroke-dasharray:none;stroke-opacity:1"
             id="path132" /></g><g
           id="g134"
           transform="translate(238.3955,78.6592)"><path
             d="M 0,0 H 5.934"
             style="fill:#000000;fill-opacity:1;fill-rule:nonzero;stroke:#000000;stroke-width:0.5;stroke-linecap:butt;stroke-linejoin:miter;stroke-miterlimit:10;stroke-dasharray:none;stroke-opacity:1"
             id="path136" /></g><g
           id="g138"
           transform="translate(237.5874,77.4277)"><path
             d="M 0,0 H 5.934"
             style="fill:#000000;fill-opacity:1;fill-rule:nonzero;stroke:#000000;stroke-width:0.5;stroke-linecap:butt;stroke-linejoin:miter;stroke-miterlimit:10;stroke-dasharray:none;stroke-opacity:1"
             id="path140" /></g><g
           id="g142"
           transform="translate(236.5356,76.1963)"><path
             d="M 0,0 H 5.934"
             style="fill:#000000;fill-opacity:1;fill-rule:nonzero;stroke:#000000;stroke-width:0.5;stroke-linecap:butt;stroke-linejoin:miter;stroke-miterlimit:10;stroke-dasharray:none;stroke-opacity:1"
             id="path144" /></g></g></g><text
       xml:space="preserve"
       style="font-size:12px;line-height:1.25;font-family:sans-serif;stroke-width:0.75"
       x="298.48645"
       y="-63.210857"
       id="text1711"
       transform="scale(1,-1)"><tspan
         sodipodi:role="line"
         id="tspan1709"
         style="stroke-width:0.75"
         x="298.48645"
         y="-63.210857">$\theta$</tspan></text><text
       xml:space="preserve"
       style="font-size:12px;line-height:1.25;font-family:sans-serif;stroke-width:0.75"
       x="315.03165"
       y="-44.521294"
       id="text4815"
       transform="scale(1,-1)"><tspan
         sodipodi:role="line"
         id="tspan4813"
         style="stroke-width:0.75"
         x="315.03165"
         y="-44.521294">$M(t)$</tspan></text></g></svg>
