<?xml version="1.0" encoding="UTF-8" standalone="no"?>
<!-- Created with Inkscape (http://www.inkscape.org/) -->

<svg
   version="1.1"
   id="svg2"
   xml:space="preserve"
   width="2560"
   height="1440"
   viewBox="0 0 2560 1440"
   sodipodi:docname="blocchi_stretch.svg"
   inkscape:version="1.1.1 (3bf5ae0d25, 2021-09-20)"
   xmlns:inkscape="http://www.inkscape.org/namespaces/inkscape"
   xmlns:sodipodi="http://sodipodi.sourceforge.net/DTD/sodipodi-0.dtd"
   xmlns="http://www.w3.org/2000/svg"
   xmlns:svg="http://www.w3.org/2000/svg"><defs
     id="defs6"><clipPath
       clipPathUnits="userSpaceOnUse"
       id="clipPath24"><path
         d="M 0,1080 H 1920 V 0 H 0 Z"
         id="path22" /></clipPath></defs><sodipodi:namedview
     id="namedview4"
     pagecolor="#ffffff"
     bordercolor="#666666"
     borderopacity="1.0"
     inkscape:pageshadow="2"
     inkscape:pageopacity="0.0"
     inkscape:pagecheckerboard="0"
     showgrid="false"
     inkscape:zoom="2.053319"
     inkscape:cx="789.21007"
     inkscape:cy="695.45941"
     inkscape:window-width="1278"
     inkscape:window-height="1032"
     inkscape:window-x="74"
     inkscape:window-y="20"
     inkscape:window-maximized="0"
     inkscape:current-layer="g8" /><g
     id="g8"
     inkscape:groupmode="layer"
     inkscape:label="blocchi_stretch"
     transform="matrix(1.3333333,0,0,-1.3333333,0,1440)"><path
       d="M 600.90387,601.08791 H 493.07648 v 51.96618 h 107.82739 z"
       style="fill:none;stroke:#000000;stroke-width:1.12593;stroke-linecap:butt;stroke-linejoin:miter;stroke-miterlimit:10;stroke-dasharray:none;stroke-opacity:1"
       id="path10" /><path
       d="m 679.4421,610.00975 h -26.08673 v 34.1225 h 26.08673 z"
       style="fill:none;stroke:#000000;stroke-width:0.877508;stroke-linecap:butt;stroke-linejoin:miter;stroke-miterlimit:10;stroke-dasharray:none;stroke-opacity:1"
       id="path12" /><g
       id="g14"
       transform="matrix(0.84890416,0,0,1,684.54631,627.0713)"><path
         d="M 0,0 H 82.05"
         style="fill:none;stroke:#000000;stroke-width:1;stroke-linecap:butt;stroke-linejoin:miter;stroke-miterlimit:10;stroke-dasharray:none;stroke-opacity:1"
         id="path16" /></g><g
       id="g18"><g
         id="g20"
         clip-path="url(#clipPath24)"><g
           id="g26"
           transform="translate(760.2339,627.0713)"><path
             d="M 0,0 C -2.84,-1.054 -6.363,-2.852 -8.547,-4.756 L -6.827,0 -8.547,4.755 C -6.363,2.851 -2.84,1.053 0,0"
             style="fill:#000000;fill-opacity:1;fill-rule:nonzero;stroke:none"
             id="path28" /></g><g
           id="g30"
           transform="translate(714.45634,627.63086)"><path
             d="M 0,0 V -106.079"
             style="fill:none;stroke:#000000;stroke-width:1;stroke-linecap:butt;stroke-linejoin:miter;stroke-miterlimit:10;stroke-dasharray:none;stroke-opacity:1"
             id="path32" /></g><g
           id="g34"
           transform="translate(714.45634,515.51656)"><path
             d="M 0,0 C -1.054,2.84 -2.852,6.363 -4.756,8.548 L 0,6.827 4.755,8.548 C 2.851,6.363 1.053,2.84 0,0"
             style="fill:#000000;fill-opacity:1;fill-rule:nonzero;stroke:none"
             id="path36" /></g><g
           id="g38"
           transform="matrix(1.268411,0,0,1,602.60679,627.0713)"><path
             d="M 0,0 H 33.794"
             style="fill:none;stroke:#000000;stroke-width:1;stroke-linecap:butt;stroke-linejoin:miter;stroke-miterlimit:10;stroke-dasharray:none;stroke-opacity:1"
             id="path40" /></g><g
           id="g42"
           transform="translate(652.29847,627.0713)"><path
             d="M 0,0 C -2.84,-1.054 -6.363,-2.852 -8.547,-4.756 L -6.827,0 -8.547,4.755 C -6.363,2.851 -2.84,1.053 0,0"
             style="fill:#000000;fill-opacity:1;fill-rule:nonzero;stroke:none"
             id="path44" /></g><g
           id="g46"
           transform="matrix(1.2864251,0,0,1,687.4893,493.0713)"><path
             d="M 0,0 H -33.794"
             style="fill:none;stroke:#000000;stroke-width:1;stroke-linecap:butt;stroke-linejoin:miter;stroke-miterlimit:10;stroke-dasharray:none;stroke-opacity:1"
             id="path48" /></g><g
           id="g50"
           transform="translate(637.79762,493.43656)"><path
             d="M 0,0 C 2.84,1.054 6.363,2.852 8.547,4.756 L 6.827,0 8.547,-4.755 C 6.363,-2.851 2.84,-1.053 0,0"
             style="fill:#000000;fill-opacity:1;fill-rule:nonzero;stroke:none"
             id="path52" /></g><g
           id="g54"
           transform="translate(561.4893,493.0713)"><path
             d="M 0,0 H -52.454"
             style="fill:none;stroke:#000000;stroke-width:1;stroke-linecap:butt;stroke-linejoin:miter;stroke-miterlimit:10;stroke-dasharray:none;stroke-opacity:1"
             id="path56" /></g><g
           id="g58"
           transform="translate(503,493.0713)"><path
             d="M 0,0 C 2.84,1.054 6.363,2.852 8.547,4.756 L 6.827,0 8.547,-4.755 C 6.363,-2.851 2.84,-1.053 0,0"
             style="fill:#000000;fill-opacity:1;fill-rule:nonzero;stroke:none"
             id="path60" /></g><g
           id="g62"
           transform="translate(446.2446,610.2808)"><path
             d="M 0,0 V -117.281 H 12.968"
             style="fill:none;stroke:#000000;stroke-width:1;stroke-linecap:butt;stroke-linejoin:miter;stroke-miterlimit:10;stroke-dasharray:none;stroke-opacity:1"
             id="path64" /></g><g
           id="g66"
           transform="translate(446.2446,616.3159)"><path
             d="M 0,0 C -1.054,-2.84 -2.852,-6.363 -4.756,-8.547 L 0,-6.827 4.755,-8.547 C 2.851,-6.363 1.053,-2.839 0,0"
             style="fill:#000000;fill-opacity:1;fill-rule:nonzero;stroke:none"
             id="path68" /></g><g
           id="g70"
           transform="matrix(0.84871363,0,0,1,458.14903,627.0713)"><path
             d="M 0,0 H 30.73"
             style="fill:none;stroke:#000000;stroke-width:1;stroke-linecap:butt;stroke-linejoin:miter;stroke-miterlimit:10;stroke-dasharray:none;stroke-opacity:1"
             id="path72" /></g><g
           id="g74"
           transform="translate(490.2656,627.0713)"><path
             d="M 0,0 C -2.84,-1.054 -6.363,-2.852 -8.547,-4.756 L -6.827,0 -8.547,4.755 C -6.363,2.851 -2.84,1.053 0,0"
             style="fill:#000000;fill-opacity:1;fill-rule:nonzero;stroke:none"
             id="path76" /></g><g
           id="g78"
           transform="matrix(1.4738371,0,0,1,377.32697,627.0713)"><path
             d="M 0,0 H 33.795"
             style="fill:none;stroke:#000000;stroke-width:1;stroke-linecap:butt;stroke-linejoin:miter;stroke-miterlimit:10;stroke-dasharray:none;stroke-opacity:1"
             id="path80" /></g><g
           id="g82"
           transform="translate(433.1704,627.0713)"><path
             d="M 0,0 C -2.84,-1.054 -6.363,-2.852 -8.547,-4.756 L -6.827,0 -8.547,4.755 C -6.363,2.851 -2.84,1.053 0,0"
             style="fill:#000000;fill-opacity:1;fill-rule:nonzero;stroke:none"
             id="path84" /></g><g
           id="g86"
           transform="translate(453.5,627.0713)"><path
             d="m 0,0 c 0,-4.142 -3.358,-7.5 -7.5,-7.5 -4.142,0 -7.5,3.358 -7.5,7.5 0,4.142 3.358,7.5 7.5,7.5 C -3.358,7.5 0,4.142 0,0 Z"
             style="fill:none;stroke:#000000;stroke-width:1;stroke-linecap:butt;stroke-linejoin:miter;stroke-miterlimit:10;stroke-dasharray:none;stroke-opacity:1"
             id="path88" /></g><path
           d="m 499.5,475.5 h -35 v 35 h 35 z"
           style="fill:none;stroke:#000000;stroke-width:1;stroke-linecap:butt;stroke-linejoin:miter;stroke-miterlimit:10;stroke-dasharray:none;stroke-opacity:1"
           id="path90" /><path
           d="M 737.27932,475.5 H 688.5 v 35 h 48.77932 z"
           style="fill:none;stroke:#000000;stroke-width:1.18055;stroke-linecap:butt;stroke-linejoin:miter;stroke-miterlimit:10;stroke-dasharray:none;stroke-opacity:1"
           id="path92" /><path
           d="m 635.7216,465.24528 h -74.29094 v 54.32406 h 74.29094 z"
           style="fill:none;stroke:#000000;stroke-width:0.86132;stroke-linecap:butt;stroke-linejoin:miter;stroke-miterlimit:10;stroke-dasharray:none;stroke-opacity:1"
           id="path94" /><path
           d="M 699.18627,579.5 H 471.5 v 101 h 227.68627 v -69.13151 z"
           style="fill:none;stroke:#0000d3;stroke-width:1.02433;stroke-linecap:butt;stroke-linejoin:miter;stroke-miterlimit:10;stroke-dasharray:4.09731;stroke-dashoffset:0;stroke-opacity:1"
           id="path96"
           sodipodi:nodetypes="cccccc" /><path
           d="M 753.72162,437.5 H 452.5 v 103 h 301.22162 z"
           style="fill:none;stroke:#00d351;stroke-width:1.01567;stroke-linecap:butt;stroke-linejoin:miter;stroke-miterlimit:10;stroke-dasharray:4.06267;stroke-dashoffset:0;stroke-opacity:1"
           id="path98" /></g></g><text
       xml:space="preserve"
       style="font-size:12px;line-height:1.25;font-family:sans-serif;stroke-width:0.75"
       x="377.2179"
       y="-636.20178"
       id="text1335"
       transform="scale(1,-1)"><tspan
         sodipodi:role="line"
         id="tspan1333"
         style="stroke-width:0.75"
         x="377.2179"
         y="-636.20178">$M_x(s)$</tspan></text><text
       xml:space="preserve"
       style="font-size:12px;line-height:1.25;font-family:sans-serif;stroke-width:0.75"
       x="428.5751"
       y="-629.44818"
       id="text3625"
       transform="scale(1,-1)"><tspan
         sodipodi:role="line"
         id="tspan3623"
         style="stroke-width:0.75"
         x="428.5751"
         y="-629.44818">+</tspan></text><text
       xml:space="preserve"
       style="font-size:12px;line-height:1.25;font-family:sans-serif;stroke-width:0.75"
       x="449.53955"
       y="-611.97125"
       id="text5851"
       transform="scale(1,-1)"><tspan
         sodipodi:role="line"
         id="tspan5849"
         style="stroke-width:0.75"
         x="449.53955"
         y="-611.97125">-</tspan></text><text
       xml:space="preserve"
       style="font-size:7.85279px;line-height:1.25;font-family:sans-serif;stroke-width:0.490799"
       x="760.35864"
       y="-408.11844"
       id="text7817"
       transform="scale(0.654399,-1.5281197)"><tspan
         sodipodi:role="line"
         id="tspan7815"
         style="stroke-width:0.490799"
         x="760.35864"
         y="-408.11844">$1\over (BJ/K)s^2+Js+B$</tspan></text><text
       xml:space="preserve"
       style="font-size:9.56777px;line-height:1.25;font-family:sans-serif;stroke-width:0.597985"
       x="763.70801"
       y="-504.33377"
       id="text11291"
       transform="scale(0.79731394,-1.2542111)"><tspan
         sodipodi:role="line"
         id="tspan11289"
         style="stroke-width:0.597985"
         x="763.70801"
         y="-504.33377">$\color{gray}{s\theta(s)}$</tspan></text><text
       xml:space="preserve"
       style="font-size:12px;line-height:1.25;font-family:sans-serif;stroke-width:0.75"
       x="660.68433"
       y="-622.7561"
       id="text12141"
       transform="scale(1,-1)"><tspan
         sodipodi:role="line"
         id="tspan12139"
         style="stroke-width:0.75"
         x="660.68433"
         y="-622.7561">$1\over s$</tspan></text><text
       xml:space="preserve"
       style="font-size:8.86384px;line-height:1.25;font-family:sans-serif;stroke-width:0.55399"
       x="968.2901"
       y="-471.15018"
       id="text13507"
       transform="scale(0.73865359,-1.3538146)"><tspan
         sodipodi:role="line"
         id="tspan13505"
         style="stroke-width:0.55399"
         x="968.2901"
         y="-471.15018">$\theta(s)$</tspan></text><text
       xml:space="preserve"
       style="font-size:12px;line-height:1.25;font-family:sans-serif;stroke-width:0.75"
       x="695.82471"
       y="-488.64032"
       id="text15149"
       transform="scale(1,-1)"><tspan
         sodipodi:role="line"
         id="tspan15147"
         style="stroke-width:0.75"
         x="695.82471"
         y="-488.64032">$e^{-sT_d}$</tspan></text><text
       xml:space="preserve"
       style="font-size:6.08511px;line-height:1.25;font-family:sans-serif;stroke-width:0.380319"
       x="1132.2129"
       y="-247.04485"
       id="text16131"
       transform="scale(0.50709231,-1.9720275)"><tspan
         sodipodi:role="line"
         id="tspan16129"
         style="stroke-width:0.380319"
         x="1132.2129"
         y="-247.04485">$\tau s+1/\eta\over \tau s+1$</tspan></text><text
       xml:space="preserve"
       style="font-size:12px;line-height:1.25;font-family:sans-serif;stroke-width:0.75"
       x="477.14716"
       y="-489.49615"
       id="text18487"
       transform="scale(1,-1)"><tspan
         sodipodi:role="line"
         id="tspan18485"
         style="stroke-width:0.75"
         x="477.14716"
         y="-489.49615">$\beta$</tspan></text><text
       xml:space="preserve"
       style="font-size:12px;line-height:1.25;font-family:sans-serif;stroke-width:0.75"
       x="449.8205"
       y="-552.19598"
       id="text19985"
       transform="scale(1,-1)"><tspan
         sodipodi:role="line"
         id="tspan19983"
         style="stroke-width:0.75"
         x="449.8205"
         y="-552.19598">$\color{gray}{M_o(s)}$</tspan></text></g></svg>
